<svg xmlns="http://www.w3.org/2000/svg" xmlns:xlink="http://www.w3.org/1999/xlink" width="500" zoomAndPan="magnify" viewBox="0 0 375 374.999991" height="500" preserveAspectRatio="xMidYMid meet" version="1.0"><rect x="-37.5" width="450" fill="#ffffff" y="-37.499999" height="449.999989" fill-opacity="1"/><rect x="-37.5" width="450" fill="#ffffff" y="-37.499999" height="449.999989" fill-opacity="1"/><path fill="#000000" d="M 164.558594 38.417969 L 164.710938 64.703125 L 172.832031 64.703125 L 172.984375 45.773438 C 173.085938 31.210938 173.238281 26.898438 173.746094 26.898438 C 174.050781 26.898438 176.4375 29.742188 178.925781 33.242188 C 181.464844 36.742188 185.117188 41.816406 187.148438 44.507812 C 189.179688 47.246094 192.125 51.304688 193.699219 53.539062 C 195.273438 55.769531 196.84375 57.800781 197.148438 58.105469 C 197.453125 58.359375 198.316406 59.527344 199.128906 60.695312 C 201.921875 64.855469 202.125 64.957031 206.59375 64.957031 L 210.652344 64.957031 L 210.652344 12.183594 L 201.515625 12.183594 L 201.515625 30.195312 C 201.515625 40.09375 201.3125 48.210938 201.109375 48.210938 C 200.90625 48.210938 199.230469 46.128906 197.453125 43.59375 C 195.628906 41.105469 193.699219 38.417969 193.140625 37.65625 C 192.582031 36.894531 190.449219 34.003906 188.417969 31.210938 C 186.386719 28.421875 184.304688 25.578125 183.796875 24.867188 C 183.238281 24.160156 181.261719 21.417969 179.382812 18.78125 C 177.453125 16.140625 175.726562 13.859375 175.523438 13.808594 C 175.269531 13.707031 175.117188 13.300781 175.117188 12.894531 C 175.117188 12.335938 174.050781 12.183594 169.785156 12.183594 L 164.457031 12.183594 Z M 164.558594 38.417969 " fill-opacity="1" fill-rule="nonzero"/><path fill="#000000" d="M 186.4375 93.523438 C 186.183594 93.828125 185.421875 95.503906 184.8125 97.175781 C 184.152344 98.851562 183.339844 100.882812 182.984375 101.746094 C 182.632812 102.554688 182.125 103.824219 181.820312 104.535156 C 181.261719 106.058594 178.773438 111.539062 178.113281 112.753906 C 177.859375 113.261719 177.65625 113.871094 177.65625 114.175781 C 177.65625 114.429688 177.046875 115.953125 176.335938 117.578125 C 175.625 119.199219 174.761719 121.078125 174.507812 121.789062 C 174.203125 122.5 173.695312 123.714844 173.339844 124.578125 C 172.984375 125.390625 172.476562 126.660156 172.171875 127.371094 C 171.917969 128.078125 171.308594 129.449219 170.851562 130.515625 C 170.394531 131.53125 170.039062 132.496094 170.039062 132.648438 C 170.039062 132.800781 169.378906 134.421875 168.519531 136.25 C 167.707031 138.078125 166.996094 139.699219 166.996094 139.800781 C 166.996094 139.902344 166.4375 141.222656 165.777344 142.695312 C 165.117188 144.164062 164.050781 146.652344 163.441406 148.175781 C 162.832031 149.695312 161.765625 152.183594 161.105469 153.65625 C 160.445312 155.125 159.886719 156.597656 159.886719 156.953125 C 159.886719 157.308594 159.582031 158.019531 159.226562 158.578125 C 158.820312 159.132812 158.007812 160.960938 157.347656 162.636719 C 156.738281 164.308594 155.671875 166.847656 155.015625 168.320312 C 154.355469 169.738281 153.796875 171.160156 153.796875 171.414062 C 153.796875 171.871094 152.324219 175.117188 150.699219 178.214844 C 150.445312 178.722656 150.242188 179.332031 150.242188 179.636719 C 150.242188 179.9375 149.683594 181.308594 148.972656 182.78125 C 148.261719 184.203125 147.703125 185.671875 147.703125 186.027344 C 147.703125 186.382812 147.246094 187.5 146.738281 188.617188 C 146.179688 189.683594 145.367188 191.457031 144.910156 192.574219 C 144.402344 193.691406 143.792969 195.164062 143.539062 195.871094 C 143.234375 196.582031 142.726562 197.800781 142.371094 198.664062 C 142.015625 199.476562 141.507812 200.742188 141.207031 201.453125 C 140.953125 202.164062 140.191406 203.839844 139.582031 205.261719 C 138.109375 208.660156 137.195312 210.738281 136.230469 212.972656 C 135.824219 214.039062 135.214844 215.460938 134.910156 216.167969 C 134.605469 216.878906 134.148438 217.894531 133.945312 218.453125 C 133.691406 219.011719 132.828125 221.042969 132.066406 223.019531 C 128.359375 232.152344 126.128906 237.429688 125.0625 239.867188 C 124.402344 241.289062 123.84375 242.757812 123.84375 243.0625 C 123.84375 243.316406 123.640625 243.976562 123.386719 244.484375 C 122.777344 245.601562 120.289062 251.03125 119.628906 252.703125 C 119.375 253.414062 118.867188 254.632812 118.511719 255.496094 C 118.15625 256.308594 117.648438 257.574219 117.34375 258.285156 C 117.089844 258.996094 116.226562 260.875 115.515625 262.496094 C 114.804688 264.121094 114.195312 265.644531 114.195312 265.898438 C 114.195312 266.203125 113.992188 266.8125 113.742188 267.320312 C 112.574219 269.550781 110.644531 274.117188 110.644531 274.675781 C 110.644531 275.03125 110.441406 275.539062 110.238281 275.792969 C 109.984375 276.097656 109.121094 277.875 108.359375 279.851562 C 107.546875 281.78125 106.734375 283.605469 106.480469 283.910156 C 106.277344 284.164062 106.074219 284.671875 106.074219 285.078125 C 106.074219 285.433594 105.515625 286.957031 104.855469 288.375 C 101.910156 294.871094 101.503906 295.886719 101.503906 296.496094 C 101.503906 296.851562 101.199219 297.5625 100.84375 298.121094 C 100.488281 298.675781 99.882812 299.945312 99.476562 300.910156 C 98.613281 303.144531 96.53125 307.964844 95.871094 309.128906 C 95.617188 309.636719 95.414062 310.296875 95.414062 310.652344 C 95.414062 310.957031 94.601562 312.886719 93.636719 314.964844 C 92.671875 317.046875 91.859375 318.925781 91.859375 319.179688 C 91.859375 319.429688 91.300781 320.851562 90.640625 322.324219 C 87.949219 328.261719 87.289062 329.832031 87.289062 330.136719 C 87.289062 330.441406 86.679688 331.863281 84.550781 336.582031 C 83.839844 338.207031 83.230469 339.628906 83.230469 339.730469 C 83.230469 339.832031 82.671875 341.199219 81.960938 342.722656 C 81.25 344.246094 80.691406 345.613281 80.691406 345.765625 C 80.691406 345.96875 80.183594 347.1875 79.625 348.507812 C 78.457031 351.09375 77.695312 352.972656 76.578125 355.710938 C 76.222656 356.675781 75.410156 358.503906 74.800781 359.773438 C 73.226562 362.96875 74.089844 363.527344 76.78125 360.988281 C 79.421875 358.453125 85.464844 353.277344 87.289062 351.90625 C 89.523438 350.28125 104.09375 338.003906 106.53125 335.71875 C 107.75 334.605469 109.273438 333.285156 109.882812 332.878906 C 110.492188 332.472656 112.320312 330.949219 113.992188 329.582031 C 115.617188 328.160156 118.5625 325.671875 120.542969 324 C 122.472656 322.324219 126.179688 319.230469 128.664062 317.148438 C 131.203125 315.066406 134.148438 312.582031 135.265625 311.566406 C 136.382812 310.601562 138.3125 308.976562 139.53125 308.015625 C 140.800781 307.050781 142.015625 305.984375 142.320312 305.730469 C 142.625 305.425781 144.910156 303.5 147.347656 301.417969 C 149.835938 299.335938 153.136719 296.496094 154.710938 295.175781 C 156.332031 293.855469 158.769531 291.777344 160.191406 290.609375 C 163.238281 288.125 174.253906 278.835938 176.132812 277.214844 C 181.71875 272.34375 186.589844 268.433594 187.046875 268.433594 C 187.351562 268.433594 188.0625 268.839844 188.621094 269.347656 C 190.5 271.074219 200.449219 279.496094 204.308594 282.644531 C 208.21875 285.789062 220.453125 296.089844 221.316406 296.902344 C 221.824219 297.359375 223.652344 298.980469 225.476562 300.453125 C 238.421875 311.261719 243.957031 315.929688 244.160156 316.183594 C 244.3125 316.335938 245.734375 317.503906 247.308594 318.824219 C 248.933594 320.089844 253.296875 323.746094 256.953125 326.890625 C 260.660156 330.085938 264.519531 333.335938 265.535156 334.148438 C 271.726562 339.273438 279.492188 345.816406 279.695312 346.070312 C 279.949219 346.375 286.144531 351.5 288.074219 353.023438 C 288.632812 353.480469 290.003906 354.648438 291.171875 355.660156 C 292.289062 356.675781 293.859375 358.046875 294.722656 358.707031 C 295.535156 359.367188 296.90625 360.585938 297.820312 361.394531 C 299.75 363.222656 300.867188 362.917969 299.800781 360.886719 C 298.9375 359.265625 296.957031 354.800781 296.957031 354.496094 C 296.957031 354.34375 296.296875 352.820312 295.535156 351.042969 C 294.722656 349.269531 293.757812 347.035156 293.402344 346.070312 C 293 345.109375 292.085938 342.875 291.273438 341.097656 C 290.511719 339.375 289.851562 337.800781 289.851562 337.648438 C 289.851562 337.496094 289.496094 336.582031 289.089844 335.617188 C 288.429688 334.097656 287.617188 332.21875 286.296875 329.074219 C 286.09375 328.515625 285.535156 327.246094 285.128906 326.28125 C 284.722656 325.316406 283.300781 321.867188 281.929688 318.671875 C 280.609375 315.472656 279.34375 312.632812 279.140625 312.328125 C 278.886719 312.074219 278.683594 311.566406 278.683594 311.160156 C 278.683594 310.804688 278.125 309.28125 277.515625 307.863281 C 275.585938 303.601562 273.554688 298.777344 272.742188 296.648438 C 272.335938 295.53125 271.625 293.703125 271.066406 292.589844 C 270.558594 291.421875 268.984375 287.667969 267.511719 284.164062 C 266.039062 280.664062 264.417969 276.859375 263.910156 275.691406 C 263.402344 274.523438 262.945312 273.457031 262.945312 273.253906 C 262.945312 273 262.335938 271.53125 259.59375 265.542969 C 258.933594 264.121094 258.375 262.597656 258.375 262.246094 C 258.375 261.839844 258.171875 261.332031 257.96875 261.078125 C 257.714844 260.773438 256.546875 258.183594 255.328125 255.242188 C 253.246094 250.066406 252.535156 248.441406 250.304688 243.46875 C 249.746094 242.148438 249.238281 240.882812 249.238281 240.730469 C 249.238281 240.578125 248.882812 239.613281 248.425781 238.597656 C 247.96875 237.53125 247.410156 236.164062 247.105469 235.453125 C 246.851562 234.742188 246.292969 233.523438 245.886719 232.761719 C 245.480469 231.949219 245.175781 231.089844 245.175781 230.835938 C 245.175781 230.632812 244.617188 229.210938 243.957031 227.738281 C 243.296875 226.265625 242.230469 223.78125 241.621094 222.257812 C 240.960938 220.738281 239.945312 218.300781 239.285156 216.828125 C 238.625 215.410156 238.066406 213.988281 238.066406 213.734375 C 238.066406 213.480469 237.511719 212.160156 236.800781 210.789062 C 236.089844 209.421875 235.53125 208.152344 235.53125 207.898438 C 235.53125 207.695312 235.074219 206.425781 234.464844 205.109375 C 233.09375 202.0625 232.230469 199.984375 231.570312 198.410156 C 231.316406 197.699219 230.453125 195.820312 229.742188 194.199219 C 229.03125 192.574219 228.421875 190.949219 228.421875 190.542969 C 228.421875 190.1875 228.21875 189.683594 227.914062 189.53125 C 227.660156 189.378906 227.40625 188.769531 227.40625 188.210938 C 227.40625 187.703125 227.203125 187.246094 226.898438 187.246094 C 226.644531 187.246094 226.390625 186.890625 226.390625 186.484375 C 226.390625 186.078125 225.832031 184.558594 225.121094 183.085938 C 224.410156 181.664062 223.855469 180.191406 223.855469 179.886719 C 223.855469 179.585938 223.449219 178.417969 222.890625 177.300781 C 222.382812 176.234375 221.570312 174.410156 221.113281 173.292969 C 220.605469 172.175781 219.691406 170.042969 218.980469 168.574219 C 218.320312 167.101562 217.761719 165.679688 217.761719 165.425781 C 217.761719 165.121094 216.949219 163.195312 215.984375 161.0625 C 215.019531 158.984375 214.207031 156.953125 214.207031 156.597656 C 214.207031 156.292969 214.003906 155.785156 213.75 155.53125 C 213.496094 155.226562 212.125 152.03125 210.652344 148.429688 C 208.066406 142.035156 207.304688 140.207031 204.765625 134.574219 C 204.105469 133.105469 203.546875 131.632812 203.546875 131.277344 C 203.546875 130.921875 203.34375 130.414062 203.140625 130.109375 C 202.886719 129.855469 202.378906 128.839844 202.023438 127.878906 C 201.667969 126.914062 200.855469 124.933594 200.246094 123.5625 C 199.585938 122.144531 198.46875 119.402344 197.65625 117.476562 C 196.894531 115.496094 196.085938 113.71875 195.832031 113.464844 C 195.628906 113.160156 195.425781 112.652344 195.425781 112.300781 C 195.425781 111.945312 194.816406 110.371094 194.105469 108.746094 C 192.886719 106.007812 191.921875 103.773438 190.90625 101.238281 C 187.503906 92.8125 187.300781 92.40625 186.4375 93.523438 Z M 189.789062 120.113281 C 191.007812 123.15625 193.597656 129.347656 195.527344 133.964844 C 197.453125 138.582031 199.535156 143.457031 200.09375 144.875 C 201.109375 147.414062 201.871094 149.1875 203.242188 152.335938 C 204.613281 155.429688 213.699219 177.25 219.84375 192.066406 C 223.195312 200.136719 226.644531 208.355469 227.507812 210.335938 C 229.792969 215.5625 230.25 216.675781 231.367188 219.46875 C 231.925781 220.839844 234.261719 226.46875 236.546875 231.898438 C 238.828125 237.328125 241.164062 242.910156 241.722656 244.332031 C 242.28125 245.703125 243.246094 248.035156 243.90625 249.40625 C 244.515625 250.828125 246.140625 254.582031 247.460938 257.777344 C 248.730469 260.976562 250.101562 264.273438 250.507812 265.136719 C 250.863281 265.949219 252.332031 269.5 253.804688 273 C 255.226562 276.503906 256.75 280.003906 257.105469 280.867188 C 257.460938 281.679688 260.558594 289.136719 263.960938 297.359375 C 267.359375 305.578125 270.558594 313.242188 271.066406 314.355469 C 272.488281 317.503906 273.503906 319.988281 275.992188 326.027344 C 277.210938 329.074219 278.429688 331.8125 278.734375 332.117188 C 279.441406 332.828125 279.292969 333.894531 278.480469 333.894531 C 278.074219 333.894531 277.667969 333.742188 277.566406 333.488281 C 277.515625 333.285156 273.199219 329.582031 268.019531 325.316406 C 262.84375 321.003906 257.816406 316.792969 256.800781 315.929688 C 255.835938 315.066406 254.464844 313.902344 253.753906 313.34375 C 251.117188 311.109375 242.28125 303.652344 240.300781 301.925781 C 239.183594 300.960938 237.664062 299.640625 236.953125 299.03125 C 230.148438 293.402344 225.171875 289.238281 220.097656 284.925781 C 216.796875 282.136719 213.242188 279.140625 212.175781 278.328125 C 209.640625 276.300781 198.265625 266.761719 197.960938 266.355469 C 197.808594 266.203125 195.628906 264.324219 193.039062 262.144531 C 190.449219 260.011719 188.214844 258.03125 188.0625 257.726562 C 187.503906 256.867188 186.539062 257.269531 184.253906 259.453125 C 182.984375 260.621094 179.992188 263.207031 177.605469 265.136719 C 174.050781 268.027344 150.851562 287.414062 146.179688 291.421875 C 141.863281 295.125 138.160156 298.273438 137.09375 299.132812 C 136.382812 299.691406 135.011719 300.859375 134.046875 301.722656 C 131.914062 303.550781 127.347656 307.355469 117.242188 315.828125 C 113.183594 319.179688 109.78125 322.070312 109.628906 322.222656 C 109.476562 322.375 106.53125 324.910156 103.027344 327.804688 C 99.527344 330.746094 96.632812 333.285156 96.53125 333.488281 C 96.277344 334.097656 94.90625 333.945312 94.90625 333.335938 C 94.90625 333.03125 95.210938 332.167969 95.617188 331.457031 C 96.582031 329.679688 98.460938 325.367188 98.460938 324.960938 C 98.460938 324.808594 99.019531 323.492188 99.679688 322.070312 C 100.335938 320.597656 101.859375 317.046875 103.027344 314.101562 C 104.195312 311.160156 105.617188 307.863281 106.125 306.746094 C 106.632812 305.628906 107.699219 303.09375 108.511719 301.164062 C 112.726562 290.863281 121 270.972656 121.761719 269.195312 C 122.269531 268.078125 123.03125 266.355469 123.488281 265.390625 C 123.894531 264.425781 124.757812 262.347656 125.367188 260.824219 C 125.925781 259.300781 126.738281 257.320312 127.144531 256.511719 C 127.5 255.648438 129.121094 251.792969 130.746094 247.882812 C 132.320312 243.976562 133.84375 240.578125 134.046875 240.324219 C 134.300781 240.019531 134.503906 239.511719 134.503906 239.15625 C 134.503906 238.800781 135.0625 237.328125 135.722656 235.859375 C 136.382812 234.386719 138.109375 230.429688 139.480469 227.078125 C 140.902344 223.730469 143.082031 218.453125 144.402344 215.410156 C 145.722656 212.3125 147.550781 207.898438 148.515625 205.515625 C 149.480469 203.128906 150.445312 200.742188 150.699219 200.1875 C 151.816406 197.648438 153.035156 194.757812 158.363281 181.917969 C 163.695312 168.980469 166.183594 163.09375 167.757812 159.589844 C 168.113281 158.730469 170.394531 153.25 172.832031 147.414062 C 178.519531 133.710938 180.601562 128.738281 181.972656 125.59375 C 182.582031 124.171875 183.847656 121.179688 184.761719 118.84375 C 185.726562 116.5625 186.742188 114.683594 187.046875 114.683594 C 187.351562 114.683594 188.621094 117.121094 189.789062 120.113281 Z M 189.789062 120.113281 " fill-opacity="1" fill-rule="nonzero"/><path fill="#000000" d="M 187.300781 137.875 C 187.25 138.128906 187.25 162.789062 187.300781 192.726562 L 187.300781 247.121094 L 189.230469 248.847656 C 190.246094 249.761719 192.480469 251.640625 194.15625 253.007812 C 195.832031 254.328125 197.300781 255.597656 197.453125 255.75 C 197.757812 256.105469 218.726562 273.761719 223.042969 277.316406 C 224.765625 278.683594 229.132812 282.339844 232.738281 285.382812 C 236.394531 288.425781 241.722656 292.894531 244.617188 295.277344 C 247.511719 297.664062 250.710938 300.402344 251.726562 301.265625 C 255.175781 304.410156 255.175781 303.800781 251.523438 295.074219 C 251.167969 294.210938 250.152344 291.726562 249.238281 289.492188 C 248.375 287.261719 247.410156 284.976562 247.207031 284.417969 C 246.648438 283.148438 235.632812 255.902344 230.910156 244.078125 C 228.929688 239.207031 227.101562 234.742188 226.847656 234.183594 C 226.59375 233.625 224.460938 228.246094 222.027344 222.257812 C 213.039062 199.679688 206.085938 182.476562 204.308594 178.367188 C 203.953125 177.503906 202.582031 174.105469 201.261719 170.753906 C 199.941406 167.40625 198.671875 164.207031 198.46875 163.652344 C 197.808594 162.128906 195.375 156.191406 194.867188 155.023438 C 191.667969 147.363281 188.316406 138.734375 188.316406 138.179688 C 188.316406 137.519531 187.300781 137.214844 187.300781 137.875 Z M 187.300781 137.875 " fill-opacity="1" fill-rule="nonzero"/></svg>